<svg xmlns="http://www.w3.org/2000/svg" version="1.1" xmlns:xlink="http://www.w3.org/1999/xlink" xmlns:svgjs="http://svgjs.com/svgjs" width="512.000000pt" height="512.000000pt"><svg version="1.0" xmlns="http://www.w3.org/2000/svg" width="512.000000pt" height="512.000000pt" viewBox="0 0 512.000000 512.000000" preserveAspectRatio="xMidYMid meet">

    <g transform="translate(0.000000,512.000000) scale(0.100000,-0.100000)" fill="#0E76FD" stroke="none">
        <path d="M2485 5031 c-92 -24 -173 -90 -215 -176 -20 -40 -24 -66 -25 -132 l0
-82 -35 -20 c-19 -10 -345 -186 -723 -390 l-688 -371 -51 35 c-167 115 -374
68 -469 -107 -31 -57 -34 -71 -34 -143 0 -65 5 -90 26 -136 33 -70 87 -125
156 -156 l53 -24 0 -769 0 -769 -53 -24 c-66 -30 -118 -81 -154 -150 -24 -45
-28 -64 -28 -137 0 -70 5 -94 25 -135 89 -182 308 -237 478 -120 l51 35 688
-371 c378 -204 704 -380 723 -390 l35 -20 1 -82 c1 -130 53 -217 166 -278 58
-31 70 -34 148 -34 78 0 90 3 148 34 70 38 101 70 140 145 22 43 26 65 26 133
l1 83 110 59 c61 33 386 208 724 391 l615 331 25 -21 c14 -11 51 -33 81 -48
46 -23 68 -27 135 -27 71 1 87 4 143 34 70 38 100 69 140 145 38 73 38 187 1
267 -33 70 -87 125 -156 156 l-53 24 0 769 0 769 53 24 c69 31 123 86 156 156
36 78 37 193 1 266 -31 64 -91 124 -155 155 -41 20 -65 25 -135 24 -90 0 -133
-15 -206 -71 l-31 -23 -614 331 c-338 182 -663 357 -724 390 l-110 59 0 83
c-1 74 -4 88 -35 145 -56 104 -143 160 -259 167 -36 2 -79 1 -96 -4z m138
-165 c104 -43 128 -175 47 -256 -66 -66 -156 -67 -221 -1 -124 123 13 325 174
257z m-266 -392 c18 -14 54 -34 78 -45 l45 -20 0 -324 0 -325 80 0 80 0 0 325
0 324 45 20 c24 11 60 31 79 46 l34 26 488 -264 c269 -145 595 -321 724 -390
l235 -127 0 -80 0 -80 -310 -167 c-170 -91 -320 -173 -333 -181 l-22 -14 37
-69 36 -68 41 21 c23 11 173 92 335 180 l293 159 34 -26 c19 -15 55 -35 79
-46 l45 -20 0 -769 0 -769 -45 -20 c-24 -11 -60 -31 -79 -46 l-34 -26 -295
160 c-162 88 -312 168 -334 180 l-40 20 -36 -68 -37 -69 22 -14 c13 -8 163
-90 333 -182 l310 -167 0 -79 0 -79 -105 -57 c-58 -31 -383 -207 -724 -391
l-618 -334 -34 26 c-19 15 -55 35 -79 46 l-45 20 0 324 0 325 -80 0 -80 0 0
-325 0 -324 -45 -20 c-24 -11 -60 -31 -78 -46 l-34 -25 -724 390 -724 390 0
80 0 80 320 171 c176 95 326 177 333 182 9 7 4 25 -25 78 l-37 68 -30 -16
c-17 -9 -168 -90 -335 -180 l-303 -164 -34 26 c-19 15 -55 35 -79 46 l-45 20
0 769 0 769 45 20 c24 11 60 31 79 46 l34 26 303 -164 c167 -90 318 -171 335
-180 l30 -16 37 68 c29 53 34 71 25 78 -7 6 -157 87 -333 182 l-320 172 0 79
0 79 720 390 c396 214 722 390 724 390 2 1 19 -11 38 -25z m-1734 -688 c103
-43 128 -177 48 -257 -112 -113 -296 -12 -267 146 18 94 128 150 219 111z
m4000 0 c103 -43 128 -177 48 -257 -112 -113 -296 -12 -267 146 18 94 128 150
219 111z m-4000 -2160 c103 -43 128 -177 48 -257 -65 -65 -157 -65 -222 0
-124 123 13 325 174 257z m4000 0 c103 -43 128 -177 48 -257 -65 -65 -157 -65
-222 0 -124 123 13 325 174 257z m-2000 -1080 c103 -43 128 -177 48 -257 -65
-65 -157 -65 -222 0 -124 123 13 325 174 257z"></path>
        <path d="M2339 3505 c-278 -38 -488 -148 -555 -290 l-24 -50 0 -605 0 -605 25
-50 c28 -58 43 -76 106 -128 207 -168 707 -227 1069 -126 179 49 328 150 377
254 l23 50 0 605 0 605 -24 50 c-50 106 -195 205 -376 255 -173 47 -425 62
-621 35z m506 -174 c109 -23 183 -50 255 -93 55 -33 100 -86 100 -118 0 -52
-91 -126 -210 -171 -147 -56 -401 -82 -588 -60 -250 29 -454 121 -478 216 -24
95 182 207 452 244 106 15 363 5 469 -18z m-834 -500 c168 -78 330 -111 548
-111 226 0 410 39 570 120 33 16 63 30 66 30 3 0 5 -74 5 -164 0 -153 -1 -165
-23 -197 -65 -96 -289 -173 -547 -185 -255 -13 -520 45 -647 142 -57 44 -63
65 -63 244 0 88 2 160 4 160 2 0 41 -18 87 -39z m0 -560 c168 -78 330 -111
548 -111 226 0 410 39 570 120 33 16 63 30 66 30 3 0 5 -72 5 -160 0 -179 -6
-200 -63 -244 -218 -166 -749 -194 -1055 -56 -152 69 -162 88 -162 300 0 88 2
160 4 160 2 0 41 -18 87 -39z"></path>
        <path d="M2880 2560 l0 -80 80 0 80 0 0 80 0 80 -80 0 -80 0 0 -80z"></path>
        <path d="M2880 2000 l0 -80 80 0 80 0 0 80 0 80 -80 0 -80 0 0 -80z"></path>
    </g>
</svg><style>@media (prefers-color-scheme: light) { :root { filter: none; } }
</style></svg>