<svg xmlns="http://www.w3.org/2000/svg" xmlns:xlink="http://www.w3.org/1999/xlink" version="1.1" width="1000" height="1000" viewBox="0 0 1000 1000" xml:space="preserve">
<desc>Created with Fabric.js 3.5.0</desc>
<defs>
</defs>
<rect x="0" y="0" width="100%" height="100%" fill="#333333"/>
<g transform="matrix(0.5586 0 0 0.5586 500.0099 327.5413)" id="883546">
<g style="" vector-effect="non-scaling-stroke">
		<g transform="matrix(0.1333 0 0 -0.1333 0.0312 -0.1469)">
<path style="stroke: none; stroke-width: 1; stroke-dasharray: none; stroke-linecap: butt; stroke-dashoffset: 0; stroke-linejoin: miter; stroke-miterlimit: 4; is-custom-font: none; font-file-url: none; fill: rgb(14,118,253); fill-rule: nonzero; opacity: 1;" transform=" translate(-2560.8131, -2560.4829)" d="M 2485 5031 c -92 -24 -173 -90 -215 -176 c -20 -40 -24 -66 -25 -132 l 0 -82 l -35 -20 c -19 -10 -345 -186 -723 -390 l -688 -371 l -51 35 c -167 115 -374 68 -469 -107 c -31 -57 -34 -71 -34 -143 c 0 -65 5 -90 26 -136 c 33 -70 87 -125 156 -156 l 53 -24 l 0 -769 l 0 -769 l -53 -24 c -66 -30 -118 -81 -154 -150 c -24 -45 -28 -64 -28 -137 c 0 -70 5 -94 25 -135 c 89 -182 308 -237 478 -120 l 51 35 l 688 -371 c 378 -204 704 -380 723 -390 l 35 -20 l 1 -82 c 1 -130 53 -217 166 -278 c 58 -31 70 -34 148 -34 c 78 0 90 3 148 34 c 70 38 101 70 140 145 c 22 43 26 65 26 133 l 1 83 l 110 59 c 61 33 386 208 724 391 l 615 331 l 25 -21 c 14 -11 51 -33 81 -48 c 46 -23 68 -27 135 -27 c 71 1 87 4 143 34 c 70 38 100 69 140 145 c 38 73 38 187 1 267 c -33 70 -87 125 -156 156 l -53 24 l 0 769 l 0 769 l 53 24 c 69 31 123 86 156 156 c 36 78 37 193 1 266 c -31 64 -91 124 -155 155 c -41 20 -65 25 -135 24 c -90 0 -133 -15 -206 -71 l -31 -23 l -614 331 c -338 182 -663 357 -724 390 l -110 59 l 0 83 c -1 74 -4 88 -35 145 c -56 104 -143 160 -259 167 c -36 2 -79 1 -96 -4 z m 138 -165 c 104 -43 128 -175 47 -256 c -66 -66 -156 -67 -221 -1 c -124 123 13 325 174 257 z m -266 -392 c 18 -14 54 -34 78 -45 l 45 -20 l 0 -324 l 0 -325 l 80 0 l 80 0 l 0 325 l 0 324 l 45 20 c 24 11 60 31 79 46 l 34 26 l 488 -264 c 269 -145 595 -321 724 -390 l 235 -127 l 0 -80 l 0 -80 l -310 -167 c -170 -91 -320 -173 -333 -181 l -22 -14 l 37 -69 l 36 -68 l 41 21 c 23 11 173 92 335 180 l 293 159 l 34 -26 c 19 -15 55 -35 79 -46 l 45 -20 l 0 -769 l 0 -769 l -45 -20 c -24 -11 -60 -31 -79 -46 l -34 -26 l -295 160 c -162 88 -312 168 -334 180 l -40 20 l -36 -68 l -37 -69 l 22 -14 c 13 -8 163 -90 333 -182 l 310 -167 l 0 -79 l 0 -79 l -105 -57 c -58 -31 -383 -207 -724 -391 l -618 -334 l -34 26 c -19 15 -55 35 -79 46 l -45 20 l 0 324 l 0 325 l -80 0 l -80 0 l 0 -325 l 0 -324 l -45 -20 c -24 -11 -60 -31 -78 -46 l -34 -25 l -724 390 l -724 390 l 0 80 l 0 80 l 320 171 c 176 95 326 177 333 182 c 9 7 4 25 -25 78 l -37 68 l -30 -16 c -17 -9 -168 -90 -335 -180 l -303 -164 l -34 26 c -19 15 -55 35 -79 46 l -45 20 l 0 769 l 0 769 l 45 20 c 24 11 60 31 79 46 l 34 26 l 303 -164 c 167 -90 318 -171 335 -180 l 30 -16 l 37 68 c 29 53 34 71 25 78 c -7 6 -157 87 -333 182 l -320 172 l 0 79 l 0 79 l 720 390 c 396 214 722 390 724 390 c 2 1 19 -11 38 -25 z m -1734 -688 c 103 -43 128 -177 48 -257 c -112 -113 -296 -12 -267 146 c 18 94 128 150 219 111 z m 4000 0 c 103 -43 128 -177 48 -257 c -112 -113 -296 -12 -267 146 c 18 94 128 150 219 111 z m -4000 -2160 c 103 -43 128 -177 48 -257 c -65 -65 -157 -65 -222 0 c -124 123 13 325 174 257 z m 4000 0 c 103 -43 128 -177 48 -257 c -65 -65 -157 -65 -222 0 c -124 123 13 325 174 257 z m -2000 -1080 c 103 -43 128 -177 48 -257 c -65 -65 -157 -65 -222 0 c -124 123 13 325 174 257 z" stroke-linecap="round"/>
</g>
		<g transform="matrix(0.1333 0 0 -0.1333 -0.0267 -0.0196)">
<path style="stroke: none; stroke-width: 1; stroke-dasharray: none; stroke-linecap: butt; stroke-dashoffset: 0; stroke-linejoin: miter; stroke-miterlimit: 4; is-custom-font: none; font-file-url: none; fill: rgb(14,118,253); fill-rule: nonzero; opacity: 1;" transform=" translate(-2560, -2559.9075)" d="M 2339 3505 c -278 -38 -488 -148 -555 -290 l -24 -50 l 0 -605 l 0 -605 l 25 -50 c 28 -58 43 -76 106 -128 c 207 -168 707 -227 1069 -126 c 179 49 328 150 377 254 l 23 50 l 0 605 l 0 605 l -24 50 c -50 106 -195 205 -376 255 c -173 47 -425 62 -621 35 z m 506 -174 c 109 -23 183 -50 255 -93 c 55 -33 100 -86 100 -118 c 0 -52 -91 -126 -210 -171 c -147 -56 -401 -82 -588 -60 c -250 29 -454 121 -478 216 c -24 95 182 207 452 244 c 106 15 363 5 469 -18 z m -834 -500 c 168 -78 330 -111 548 -111 c 226 0 410 39 570 120 c 33 16 63 30 66 30 c 3 0 5 -74 5 -164 c 0 -153 -1 -165 -23 -197 c -65 -96 -289 -173 -547 -185 c -255 -13 -520 45 -647 142 c -57 44 -63 65 -63 244 c 0 88 2 160 4 160 c 2 0 41 -18 87 -39 z m 0 -560 c 168 -78 330 -111 548 -111 c 226 0 410 39 570 120 c 33 16 63 30 66 30 c 3 0 5 -72 5 -160 c 0 -179 -6 -200 -63 -244 c -218 -166 -749 -194 -1055 -56 c -152 69 -162 88 -162 300 c 0 88 2 160 4 160 c 2 0 41 -18 87 -39 z" stroke-linecap="round"/>
</g>
		<g transform="matrix(0.1333 0 0 -0.1333 53.3307 -0.0026)">
<path style="stroke: none; stroke-width: 1; stroke-dasharray: none; stroke-linecap: butt; stroke-dashoffset: 0; stroke-linejoin: miter; stroke-miterlimit: 4; is-custom-font: none; font-file-url: none; fill: rgb(14,118,253); fill-rule: nonzero; opacity: 1;" transform=" translate(-2960, -2560)" d="M 2880 2560 l 0 -80 l 80 0 l 80 0 l 0 80 l 0 80 l -80 0 l -80 0 l 0 -80 z" stroke-linecap="round"/>
</g>
		<g transform="matrix(0.1333 0 0 -0.1333 53.3307 74.6639)">
<path style="stroke: none; stroke-width: 1; stroke-dasharray: none; stroke-linecap: butt; stroke-dashoffset: 0; stroke-linejoin: miter; stroke-miterlimit: 4; is-custom-font: none; font-file-url: none; fill: rgb(14,118,253); fill-rule: nonzero; opacity: 1;" transform=" translate(-2960, -2000)" d="M 2880 2000 l 0 -80 l 80 0 l 80 0 l 0 80 l 0 80 l -80 0 l -80 0 l 0 -80 z" stroke-linecap="round"/>
</g>
</g>
</g>
<g transform="matrix(6.1527 0 0 6.1101 499.9965 500.0028)" id="261029">
<path style="stroke: rgb(0,153,255); stroke-width: 5; stroke-dasharray: none; stroke-linecap: butt; stroke-dashoffset: 0; stroke-linejoin: miter; stroke-miterlimit: 4; is-custom-font: none; font-file-url: none; fill: none; fill-rule: nonzero; opacity: 1;" vector-effect="non-scaling-stroke" transform=" translate(-79, -78.9999)" d="M 154.685 2.50049 H 154.711 L 154.738 2.49994 C 155.15 2.49126 155.491 2.81853 155.5 3.2304 L 155.5 3.23069 C 155.5 3.24095 155.5 3.25176 155.5 3.26283 L 155.499 3.28886 V 3.3149 V 154.686 C 155.499 155.135 155.135 155.5 154.685 155.5 H 3.31409 C 2.86449 155.5 2.5 155.135 2.5 154.686 V 3.3149 C 2.5 2.86483 2.86465 2.50049 3.31409 2.50049 H 154.685 Z" stroke-linecap="round"/>
</g>
<g transform="matrix(1 0 0 1 500 733.0385)" style="" id="353266">
		
<path xml:space="preserve" font-family="Acme" font-size="125" font-style="normal" font-weight="normal" style="stroke: none; stroke-width: 1; stroke-dasharray: none; stroke-linecap: butt; stroke-dashoffset: 0; stroke-linejoin: miter; stroke-miterlimit: 4; is-custom-font: none; font-file-url: none; fill: rgb(255,255,255); fill-rule: nonzero; opacity: 1; white-space: pre;" d="M-182.31-36.55L-182.31-36.55Q-192.06-24.30-199.19-24.30L-199.19-24.30Q-208.06-24.30-213.75-31.55Q-219.44-38.80-219.44-50.17L-219.44-50.17Q-219.44-65.80-210.75-76.55Q-202.06-87.30-189.44-87.30L-189.44-87.30L-182.44-86.30L-182.44-88.67L-183.94-117.92L-166.81-121.05L-168.44-56.80L-168.44-45.80Q-168.44-38.30-164.69-28.55L-164.69-28.55L-178.19-22.92Q-181.81-30.42-182.31-36.55ZM-205.44-56.67Q-205.44-48.67-202.50-44.17Q-199.56-39.67-194.00-39.67Q-188.44-39.67-182.44-44.17L-182.44-44.17L-182.44-71.17Q-189.94-72.67-193.56-72.67L-193.56-72.67Q-199.19-72.67-202.31-68.67Q-205.44-64.67-205.44-56.67ZM-81.31-26.42L-99.31-23.67L-105.44-48.05L-135.31-48.05L-141.94-24.30L-157.94-25.55L-146.94-55.92L-130.19-109.67L-107.81-111.30L-91.69-57.80L-81.31-26.42ZM-109.19-61.30L-119.06-95.05L-120.69-95.05L-131.44-61.30L-109.19-61.30ZM-73.56-84.67L-73.56-84.67L-58.44-87.92Q-57.31-78.30-56.94-69.67L-56.94-69.67Q-45.56-87.30-35.56-87.30L-35.56-87.30L-36.94-67.80Q-44.19-67.80-48.37-66.48Q-52.56-65.17-56.94-61.30L-56.94-61.30L-56.94-56.80L-55.56-27.42L-72.31-24.30L-70.81-54.67Q-71.31-71.42-73.56-84.67ZM-6.19-72.42Q-11.69-72.42-14.69-68.48Q-17.69-64.55-17.69-56.42Q-17.69-48.30-14.62-43.36Q-11.56-38.42-5.69-38.42L-5.69-38.42Q-2.69-38.42 0.19-40.30Q3.06-42.17 4.56-44.05L4.56-44.05L5.94-46.05L12.19-39.55Q11.81-38.92 11.25-37.80Q10.69-36.67 8.50-33.80Q6.31-30.92 3.88-28.73Q1.44-26.55-2.44-24.73Q-6.31-22.92-10.56-22.92L-10.56-22.92Q-19.94-22.92-25.81-30.55Q-31.69-38.17-31.69-50.42L-31.69-50.42Q-31.69-65.67-22.81-77.17Q-13.94-88.67-2.06-88.67L-2.06-88.67Q1.56-88.67 5.19-87.61Q8.81-86.55 12.56-84.30L12.56-84.30L3.81-68.92Q-0.69-72.42-6.19-72.42ZM56.94-55.92Q56.94-64.55 55.44-67.42Q53.94-70.30 48.44-70.30Q42.94-70.30 35.94-65.92L35.94-65.92L35.94-56.80L37.31-27.42L20.44-24.30L21.94-54.67L20.44-117.92L37.56-121.05L35.94-88.67L35.94-74.05Q37.81-76.55 40.19-78.92Q42.56-81.30 47.56-84.30Q52.56-87.30 58.25-87.30Q63.94-87.30 67.81-82.86Q71.69-78.42 71.69-70.80L71.69-70.80L70.94-56.80L72.31-26.80L55.44-23.67L56.94-55.92ZM86.06-84.80L102.81-87.92L101.31-56.80L102.69-27.42L85.94-24.30L87.44-54.67L86.06-84.80ZM85.19-106.23Q85.19-110.42 88.44-113.73Q91.69-117.05 95.94-117.05Q100.19-117.05 102.44-114.73Q104.69-112.42 104.69-107.80Q104.69-103.17 101.50-99.86Q98.31-96.55 94.13-96.55Q89.94-96.55 87.56-99.30Q85.19-102.05 85.19-106.23ZM133.19-60.30L137.81-39.92L139.44-39.92L143.56-57.05L150.31-87.92L165.81-86.05L156.44-55.05L148.56-25.80L127.19-23.92L119.81-54.30L110.81-84.67L127.81-87.80L133.19-60.30ZM196.56-37.05L196.56-37.05Q200.19-37.05 204.19-38.92Q208.19-40.80 210.44-42.67L210.44-42.67L212.69-44.55L218.44-37.55Q217.19-35.42 214.56-32.67Q211.94-29.92 209.25-27.98Q206.56-26.05 202.13-24.48Q197.69-22.92 192.94-22.92L192.94-22.92Q182.81-22.92 176.44-30.61Q170.06-38.30 170.06-50.42L170.06-50.42Q170.06-65.67 178.94-77.17Q187.81-88.67 199.69-88.67L199.69-88.67Q208.81-88.67 213.88-83.55Q218.94-78.42 218.94-69.17L218.94-69.17Q218.94-63.67 217.06-56.67L217.06-56.67L214.56-54.05L183.31-51.17Q185.44-37.05 196.56-37.05ZM196.56-75.80L196.56-75.80Q191.06-75.80 187.31-71.36Q183.56-66.92 182.94-60.05L182.94-60.05L204.19-62.67Q204.56-65.55 204.56-67.42L204.56-67.42Q204.56-75.80 196.56-75.80Z"/><path xml:space="preserve" font-family="Acme" font-size="125" font-style="normal" font-weight="normal" style="stroke: none; stroke-width: 1; stroke-dasharray: none; stroke-linecap: butt; stroke-dashoffset: 0; stroke-linejoin: miter; stroke-miterlimit: 4; is-custom-font: none; font-file-url: none; fill: rgb(255,255,255); fill-rule: nonzero; opacity: 1; white-space: pre;" d="M-359.69 91.45L-349.94 77.95Q-339.31 88.58-328.69 88.58L-328.69 88.58Q-323.19 88.58-319.87 86.02Q-316.56 83.45-316.56 79.39Q-316.56 75.33-320.56 72.52Q-324.56 69.70-330.25 67.58Q-335.94 65.45-341.56 62.77Q-347.19 60.08-351.19 55.08Q-355.19 50.08-355.19 42.95L-355.19 42.95Q-355.19 31.70-345.81 23.52Q-336.44 15.33-323.56 15.33L-323.56 15.33Q-317.69 15.33-312.19 16.58Q-306.69 17.83-301.56 20.20L-301.56 20.20L-310.06 38.45Q-313.56 35.70-319.62 33.39Q-325.69 31.08-330.25 31.08Q-334.81 31.08-337.62 33.27Q-340.44 35.45-340.44 39.08Q-340.44 42.70-336.44 45.52Q-332.44 48.33-326.75 50.45Q-321.06 52.58-315.37 55.14Q-309.69 57.70-305.69 62.70Q-301.69 67.70-301.69 74.83L-301.69 74.83Q-301.69 86.58-311.06 95.39Q-320.44 104.20-332.94 104.20L-332.94 104.20Q-342.31 104.20-349.56 99.70L-349.56 99.70Q-355.94 95.83-358.56 92.83L-358.56 92.83L-359.69 91.45ZM-276.19 102.83L-276.19 102.83Q-282.94 102.83-287.12 98.39Q-291.31 93.95-291.31 86.70L-291.31 86.70L-290.56 72.33L-291.94 42.33L-275.19 39.20L-276.81 77.20Q-276.81 82.58-274.87 85.08Q-272.94 87.58-268.69 87.58Q-264.44 87.58-256.94 83.33L-256.94 83.33L-256.94 75.83L-258.31 42.95L-241.44 39.83L-242.94 71.08L-242.81 81.33Q-242.81 89.33-238.69 97.45L-238.69 97.45L-251.69 103.20Q-255.81 95.08-256.69 90.20L-256.69 90.20Q-267.94 102.83-276.19 102.83ZM-194.06 39.70L-194.06 39.70Q-186.06 39.70-180.62 46.70Q-175.19 53.70-175.19 65.58L-175.19 65.58Q-175.19 82.20-183.75 92.52Q-192.31 102.83-205.06 102.83L-205.06 102.83Q-207.69 102.83-210.94 102.45L-210.94 102.45L-210.31 126.33L-227.44 129.45L-225.81 72.45L-225.69 72.45Q-226.19 55.70-228.44 42.45L-228.44 42.45L-213.31 39.20Q-212.56 45.83-212.06 52.33L-212.06 52.33Q-211.81 51.70-209.50 48.89Q-207.19 46.08-202.69 42.89Q-198.19 39.70-194.06 39.70ZM-198.94 55.95L-198.94 55.95Q-205.56 55.95-211.81 59.58L-211.81 59.58L-211.81 70.33L-211.31 88.20Q-204.56 89.33-201.06 89.33L-201.06 89.33Q-189.06 89.33-189.06 72.64Q-189.06 55.95-198.94 55.95ZM-131.44 39.70L-131.44 39.70Q-123.44 39.70-118.00 46.70Q-112.56 53.70-112.56 65.58L-112.56 65.58Q-112.56 82.20-121.12 92.52Q-129.69 102.83-142.44 102.83L-142.44 102.83Q-145.06 102.83-148.31 102.45L-148.31 102.45L-147.69 126.33L-164.81 129.45L-163.19 72.45L-163.06 72.45Q-163.56 55.70-165.81 42.45L-165.81 42.45L-150.69 39.20Q-149.94 45.83-149.44 52.33L-149.44 52.33Q-149.19 51.70-146.87 48.89Q-144.56 46.08-140.06 42.89Q-135.56 39.70-131.44 39.70ZM-136.31 55.95L-136.31 55.95Q-142.94 55.95-149.19 59.58L-149.19 59.58L-149.19 70.33L-148.69 88.20Q-141.94 89.33-138.44 89.33L-138.44 89.33Q-126.44 89.33-126.44 72.64Q-126.44 55.95-136.31 55.95ZM-105.94 76.70Q-105.94 60.70-97.31 49.58Q-88.69 38.45-77.12 38.45Q-65.56 38.45-59.12 45.95Q-52.69 53.45-52.69 65.83L-52.69 65.83Q-52.69 82.33-61.00 93.27Q-69.31 104.20-81.94 104.20L-81.94 104.20Q-92.31 104.20-99.12 96.39Q-105.94 88.58-105.94 76.70L-105.94 76.70ZM-66.69 72.33L-66.69 72.33Q-66.69 54.20-79.06 54.20L-79.06 54.20Q-91.94 54.20-91.94 71.20L-91.94 71.20Q-91.94 80.08-88.31 85.08Q-84.69 90.08-78.75 90.08Q-72.81 90.08-69.75 85.52Q-66.69 80.95-66.69 72.33ZM-43.31 42.45L-43.31 42.45L-28.19 39.20Q-27.06 48.83-26.69 57.45L-26.69 57.45Q-15.31 39.83-5.31 39.83L-5.31 39.83L-6.69 59.33Q-13.94 59.33-18.12 60.64Q-22.31 61.95-26.69 65.83L-26.69 65.83L-26.69 70.33L-25.31 99.70L-42.06 102.83L-40.56 72.45Q-41.06 55.70-43.31 42.45ZM0.19 42.33L7.44 42.33L7.44 28.70L24.31 25.45L22.69 42.33L37.81 42.33L36.44 52.58L22.19 52.58L21.56 78.70Q21.56 84.58 22.69 86.52Q23.81 88.45 26.81 88.45Q29.81 88.45 34.81 87.08L34.81 87.08L35.56 95.95Q27.31 102.83 21.06 102.83Q14.81 102.83 10.81 98.27Q6.81 93.70 6.81 86.33L6.81 86.33L7.56 72.33L7.44 52.58L-1.19 52.58L0.19 42.33ZM69.44 90.08L69.44 90.08Q73.06 90.08 77.06 88.20Q81.06 86.33 83.31 84.45L83.31 84.45L85.56 82.58L91.31 89.58Q90.06 91.70 87.44 94.45Q84.81 97.20 82.13 99.14Q79.44 101.08 75.00 102.64Q70.56 104.20 65.81 104.20L65.81 104.20Q55.69 104.20 49.31 96.52Q42.94 88.83 42.94 76.70L42.94 76.70Q42.94 61.45 51.81 49.95Q60.69 38.45 72.56 38.45L72.56 38.45Q81.69 38.45 86.75 43.58Q91.81 48.70 91.81 57.95L91.81 57.95Q91.81 63.45 89.94 70.45L89.94 70.45L87.44 73.08L56.19 75.95Q58.31 90.08 69.44 90.08ZM69.44 51.33L69.44 51.33Q63.94 51.33 60.19 55.77Q56.44 60.20 55.81 67.08L55.81 67.08L77.06 64.45Q77.44 61.58 77.44 59.70L77.44 59.70Q77.44 51.33 69.44 51.33ZM101.31 42.45L101.31 42.45L116.44 39.20Q117.56 48.83 117.94 57.45L117.94 57.45Q129.31 39.83 139.31 39.83L139.31 39.83L137.94 59.33Q130.69 59.33 126.50 60.64Q122.31 61.95 117.94 65.83L117.94 65.83L117.94 70.33L119.31 99.70L102.56 102.83L104.06 72.45Q103.56 55.70 101.31 42.45ZM220.06 18.20L235.31 16.33L233.69 70.33L235.06 100.08L220.31 103.20L183.06 42.95L183.06 70.33L184.81 102.83L169.19 102.83L170.69 72.45L169.19 16.95L184.19 16.20L221.31 77.33L220.06 18.20ZM300.56 16.58L299.19 29.95L272.56 29.95L271.81 52.95L295.69 52.95L294.31 66.20L271.44 66.20L271.31 70.33L272.81 102.83L255.31 102.83L256.81 72.45L255.31 16.58L300.56 16.58ZM322.69 29.20L300.56 30.95L301.94 16.58L361.31 16.58L359.94 30.95L338.19 29.08L337.69 70.33L339.19 102.83L321.69 102.83L323.19 72.45L322.69 29.20Z"/></g>
<g transform="matrix(1 0 0 1 889.9254 93.2836)" id="463848">
<g style="" vector-effect="non-scaling-stroke">
		<g transform="matrix(1 0 0 1 11.8749 -3.0768)" clip-path="url(#CLIPPATH_5)">
<clipPath id="CLIPPATH_5">
	<rect transform="matrix(1 0 0 1 -12.135 2.9268)" id="clip0_211_261" x="-70.74" y="-54.35" rx="0" ry="0" width="141.48" height="108.7"/>
</clipPath>
<path style="stroke: none; stroke-width: 1; stroke-dasharray: none; stroke-linecap: butt; stroke-dashoffset: 0; stroke-linejoin: miter; stroke-miterlimit: 4; is-custom-font: none; font-file-url: none; fill: rgb(255,215,0); fill-rule: nonzero; opacity: 1;" transform=" translate(-82.875, -51.4232)" d="M 82.37 78.29 L 53.46 97.14 C 53.3056 97.246 53.1222 97.3017 52.935 97.2996 C 52.7477 97.2976 52.5657 97.2378 52.4136 97.1284 C 52.2616 97.019 52.147 96.8654 52.0855 96.6885 C 52.024 96.5116 52.0186 96.3201 52.07 96.14 L 61.49 63.46 C 61.5375 63.2893 61.5323 63.1083 61.4752 62.9406 C 61.4181 62.7728 61.3118 62.6263 61.17 62.52 L 33.89 41.52 C 33.7417 41.4079 33.6321 41.2521 33.5769 41.0746 C 33.5216 40.897 33.5233 40.7066 33.5818 40.5301 C 33.6402 40.3536 33.7525 40.1998 33.9029 40.0904 C 34.0532 39.981 34.2341 39.9214 34.42 39.92 L 69.15 38.57 C 69.3328 38.5726 69.5121 38.5194 69.6639 38.4176 C 69.8157 38.3158 69.933 38.1701 70 38 L 82 6.13 C 82.0663 5.95558 82.184 5.80543 82.3376 5.69949 C 82.4912 5.59354 82.6734 5.5368 82.86 5.5368 C 83.0466 5.5368 83.2288 5.59354 83.3824 5.69949 C 83.536 5.80543 83.6537 5.95558 83.72 6.13 L 95.78 38 C 95.8436 38.1672 95.9555 38.3117 96.1016 38.415 C 96.2476 38.5183 96.4211 38.5758 96.6 38.58 L 131.33 39.93 C 131.516 39.9314 131.697 39.991 131.847 40.1004 C 131.997 40.2098 132.11 40.3636 132.168 40.5401 C 132.227 40.7166 132.228 40.907 132.173 41.0846 C 132.118 41.2621 132.008 41.4179 131.86 41.53 L 104.58 62.53 C 104.438 62.6363 104.332 62.7828 104.275 62.9506 C 104.218 63.1183 104.213 63.2993 104.26 63.47 L 113.68 96.15 C 113.731 96.3301 113.726 96.5216 113.664 96.6985 C 113.603 96.8754 113.488 97.029 113.336 97.1384 C 113.184 97.2478 113.002 97.3076 112.815 97.3096 C 112.628 97.3117 112.444 97.256 112.29 97.15 L 83.38 78.29 C 83.2295 78.1927 83.0542 78.1409 82.875 78.1409 C 82.6958 78.1409 82.5205 78.1927 82.37 78.29 V 78.29 Z" stroke-linecap="round"/>
</g>
		<g transform="matrix(1 0 0 1 -51.34 30.63)" clip-path="url(#CLIPPATH_6)">
<clipPath id="CLIPPATH_6">
	<rect transform="matrix(1 0 0 1 51.08 -30.78)" id="clip0_211_261" x="-70.74" y="-54.35" rx="0" ry="0" width="141.48" height="108.7"/>
</clipPath>
<path style="stroke: none; stroke-width: 1; stroke-dasharray: none; stroke-linecap: butt; stroke-dashoffset: 0; stroke-linejoin: miter; stroke-miterlimit: 4; is-custom-font: none; font-file-url: none; fill: rgb(255,215,0); fill-rule: nonzero; opacity: 1;" transform=" translate(-19.66, -85.13)" d="M 34.21 83.19 C 26.69 79.27 21.21 71.19 19.66 61.56 C 18.11 71.24 12.66 79.27 5.11 83.19 C 3.44323 83.9292 1.73736 84.5768 0 85.13 C 1.73899 85.6785 3.44511 86.3263 5.11 87.07 C 12.63 90.99 18.11 99.07 19.66 108.7 C 21.2 99 26.69 91 34.21 87.07 C 35.8742 86.3246 37.5804 85.6768 39.32 85.13 C 37.582 84.5785 35.8761 83.9308 34.21 83.19 Z" stroke-linecap="round"/>
</g>
		<g transform="matrix(1 0 0 1 64.7701 30.21)" clip-path="url(#CLIPPATH_7)">
<clipPath id="CLIPPATH_7">
	<rect transform="matrix(1 0 0 1 -65.0302 -30.36)" id="clip0_211_261" x="-70.74" y="-54.35" rx="0" ry="0" width="141.48" height="108.7"/>
</clipPath>
<path style="stroke: none; stroke-width: 1; stroke-dasharray: none; stroke-linecap: butt; stroke-dashoffset: 0; stroke-linejoin: miter; stroke-miterlimit: 4; is-custom-font: none; font-file-url: none; fill: rgb(255,215,0); fill-rule: nonzero; opacity: 1;" transform=" translate(-135.7702, -84.71)" d="M 141.48 84.66 C 141.49 85.7914 141.163 86.9003 140.542 87.8458 C 139.921 88.7914 139.032 89.531 137.99 89.9709 C 136.948 90.4107 135.798 90.531 134.687 90.3163 C 133.576 90.1017 132.554 89.5618 131.75 88.7653 C 130.947 87.9688 130.398 86.9515 130.174 85.8425 C 129.949 84.7335 130.059 83.5829 130.49 82.5366 C 130.921 81.4903 131.653 80.5956 132.593 79.9659 C 133.533 79.3362 134.639 79 135.77 79 C 137.276 78.9999 138.721 79.5947 139.79 80.6547 C 140.859 81.7147 141.467 83.1543 141.48 84.66 V 84.66 Z" stroke-linecap="round"/>
</g>
		<g transform="matrix(1 0 0 1 -19.17 -48.79)" clip-path="url(#CLIPPATH_8)">
<clipPath id="CLIPPATH_8">
	<rect transform="matrix(1 0 0 1 18.91 48.64)" id="clip0_211_261" x="-70.74" y="-54.35" rx="0" ry="0" width="141.48" height="108.7"/>
</clipPath>
<path style="stroke: none; stroke-width: 1; stroke-dasharray: none; stroke-linecap: butt; stroke-dashoffset: 0; stroke-linejoin: miter; stroke-miterlimit: 4; is-custom-font: none; font-file-url: none; fill: rgb(255,215,0); fill-rule: nonzero; opacity: 1;" transform=" translate(-51.83, -5.71)" d="M 51.83 11.42 C 54.9835 11.42 57.54 8.86355 57.54 5.71 C 57.54 2.55645 54.9835 0 51.83 0 C 48.6765 0 46.12 2.55645 46.12 5.71 C 46.12 8.86355 48.6765 11.42 51.83 11.42 Z" stroke-linecap="round"/>
</g>
</g>
</g>
</svg>